<svg width="50" height="50" viewBox="0 0 50 50" fill="none" xmlns="http://www.w3.org/2000/svg">
<g clip-path="url(#clip0_257_149)">
<path d="M37.5 31.25C38.7362 31.25 39.9446 31.6166 40.9724 32.3033C42.0002 32.9901 42.8012 33.9662 43.2743 35.1082C43.7473 36.2503 43.8711 37.5069 43.63 38.7193C43.3888 39.9317 42.7935 41.0454 41.9195 41.9194C41.0454 42.7935 39.9317 43.3888 38.7194 43.6299C37.507 43.8711 36.2503 43.7473 35.1083 43.2743C33.9662 42.8012 32.9901 42.0001 32.3034 40.9723C31.6166 39.9445 31.25 38.7361 31.25 37.5C31.25 35.8424 31.9085 34.2527 33.0806 33.0806C34.2527 31.9085 35.8424 31.25 37.5 31.25ZM37.5 27.0833C35.4398 27.0833 33.4259 27.6943 31.7129 28.8389C29.9998 29.9835 28.6647 31.6103 27.8763 33.5137C27.0879 35.4171 26.8816 37.5116 27.2835 39.5322C27.6855 41.5528 28.6776 43.4089 30.1344 44.8657C31.5911 46.3225 33.4472 47.3146 35.4679 47.7165C37.4885 48.1185 39.5829 47.9122 41.4863 47.1238C43.3897 46.3353 45.0166 45.0002 46.1612 43.2872C47.3058 41.5742 47.9167 39.5602 47.9167 37.5C47.9167 36.1321 47.6473 34.7775 47.1238 33.5137C46.6003 32.2499 45.833 31.1016 44.8657 30.1343C43.8985 29.167 42.7501 28.3998 41.4863 27.8763C40.2225 27.3528 38.868 27.0833 37.5 27.0833Z" fill="#F9AB3E"/>
<path d="M28.1251 17.7084C28.1285 17.4064 28.0662 17.1072 27.9426 16.8317C27.8189 16.5562 27.6368 16.3108 27.4089 16.1127C27.181 15.9145 26.9128 15.7682 26.6227 15.684C26.3327 15.5998 26.0278 15.5797 25.7292 15.625C25.2239 15.723 24.7692 15.9961 24.4453 16.3962C24.1214 16.7963 23.949 17.2978 23.9584 17.8125V21.0417L17.1876 14.1667C16.7995 13.7934 16.2873 13.5763 15.7492 13.5571C15.211 13.5379 14.6847 13.7178 14.2709 14.0625C14.0332 14.2456 13.8429 14.4831 13.7161 14.755C13.5892 15.0269 13.5294 15.3252 13.5417 15.625C13.5496 16.1745 13.7742 16.6987 14.1667 17.0833L21.0417 23.9584H17.8126C17.2979 23.9489 16.7963 24.1214 16.3962 24.4453C15.9961 24.7692 15.7231 25.2238 15.6251 25.7292C15.5798 26.0278 15.5999 26.3326 15.6841 26.6227C15.7683 26.9127 15.9146 27.181 16.1127 27.4089C16.3109 27.6368 16.5562 27.8188 16.8318 27.9425C17.1073 28.0662 17.4064 28.1284 17.7084 28.125H26.0417C26.5943 28.125 27.1242 27.9055 27.5149 27.5148C27.9056 27.1241 28.1251 26.5942 28.1251 26.0417V17.7084Z" fill="#F9AB3E"/>
<path d="M22.9167 4.16668C22.9167 3.61414 23.1362 3.08424 23.5269 2.69354C23.9176 2.30284 24.4475 2.08334 25.0001 2.08334C25.5526 2.08334 26.0825 2.30284 26.4732 2.69354C26.8639 3.08424 27.0834 3.61414 27.0834 4.16668C27.0834 4.71921 26.8639 5.24912 26.4732 5.63982C26.0825 6.03052 25.5526 6.25001 25.0001 6.25001C24.4475 6.25001 23.9176 6.03052 23.5269 5.63982C23.1362 5.24912 22.9167 4.71921 22.9167 4.16668Z" fill="#F9AB3E"/>
<path d="M12.8125 8.02084C12.6631 7.78307 12.5633 7.51754 12.5191 7.24022C12.4749 6.9629 12.4873 6.6795 12.5554 6.40706C12.6235 6.13463 12.746 5.87877 12.9155 5.65487C13.085 5.43097 13.298 5.24365 13.5417 5.10417C14.0257 4.84418 14.5927 4.78588 15.1195 4.94195C15.6462 5.09802 16.09 5.45583 16.3542 5.9375C16.5016 6.16713 16.5999 6.42475 16.6429 6.69417C16.686 6.9636 16.6728 7.23902 16.6044 7.50313C16.5359 7.76724 16.4135 8.01434 16.245 8.22891C16.0765 8.44349 15.8654 8.6209 15.625 8.75C15.3954 8.89736 15.1378 8.99565 14.8684 9.0387C14.599 9.08175 14.3235 9.06862 14.0594 9.00015C13.7953 8.93168 13.5482 8.80933 13.3336 8.64081C13.1191 8.47228 12.9417 8.2612 12.8125 8.02084Z" fill="#F9AB3E"/>
<path d="M5.9376 16.3542C5.45593 16.09 5.09811 15.6462 4.94204 15.1194C4.78597 14.5927 4.84427 14.0256 5.10426 13.5417C5.40514 13.0704 5.87505 12.7322 6.41748 12.5966C6.95991 12.461 7.53368 12.5383 8.02093 12.8125C8.26129 12.9416 8.47237 13.119 8.6409 13.3336C8.80943 13.5482 8.93177 13.7953 9.00024 14.0594C9.06872 14.3235 9.08184 14.5989 9.03879 14.8683C8.99575 15.1378 8.89746 15.3954 8.75009 15.625C8.62099 15.8654 8.44358 16.0764 8.22901 16.245C8.01443 16.4135 7.76733 16.5358 7.50322 16.6043C7.23911 16.6728 6.96369 16.6859 6.69426 16.6429C6.42484 16.5998 6.16722 16.5015 5.9376 16.3542Z" fill="#F9AB3E"/>
<path d="M4.16671 27.0834C3.61417 27.0834 3.08427 26.8639 2.69357 26.4732C2.30287 26.0825 2.08337 25.5526 2.08337 25C2.08337 24.4475 2.30287 23.9176 2.69357 23.5269C3.08427 23.1362 3.61417 22.9167 4.16671 22.9167C4.71924 22.9167 5.24915 23.1362 5.63985 23.5269C6.03055 23.9176 6.25004 24.4475 6.25004 25C6.25004 25.5526 6.03055 26.0825 5.63985 26.4732C5.24915 26.8639 4.71924 27.0834 4.16671 27.0834Z" fill="#F9AB3E"/>
<path d="M8.02093 37.1875C7.78316 37.3369 7.51763 37.4367 7.24031 37.4809C6.96299 37.5251 6.67959 37.5128 6.40716 37.4447C6.13472 37.3766 5.87886 37.2541 5.65496 37.0846C5.43107 36.9151 5.24375 36.7021 5.10426 36.4584C4.84427 35.9744 4.78597 35.4073 4.94204 34.8806C5.09811 34.3538 5.45593 33.9101 5.9376 33.6459C6.16722 33.4985 6.42484 33.4002 6.69426 33.3572C6.96369 33.3141 7.23911 33.3272 7.50322 33.3957C7.76733 33.4642 8.01443 33.5865 8.22901 33.7551C8.44358 33.9236 8.62099 34.1347 8.75009 34.375C8.89746 34.6046 8.99575 34.8623 9.03879 35.1317C9.08184 35.4011 9.06872 35.6765 9.00024 35.9406C8.93177 36.2048 8.80943 36.4519 8.6409 36.6664C8.47237 36.881 8.26129 37.0584 8.02093 37.1875Z" fill="#F9AB3E"/>
<path d="M16.3542 44.0625C16.09 44.5442 15.6462 44.902 15.1195 45.0581C14.5928 45.2141 14.0257 45.1558 13.5417 44.8958C13.0705 44.595 12.7323 44.1251 12.5967 43.5826C12.4611 43.0402 12.5383 42.4664 12.8126 41.9792C12.9417 41.7388 13.1191 41.5277 13.3336 41.3592C13.5482 41.1907 13.7953 41.0683 14.0594 40.9999C14.3235 40.9314 14.599 40.9183 14.8684 40.9613C15.1378 41.0044 15.3954 41.1026 15.6251 41.25C15.8654 41.3791 16.0765 41.5565 16.245 41.7711C16.4136 41.9857 16.5359 42.2328 16.6044 42.4969C16.6728 42.761 16.686 43.0364 16.6429 43.3058C16.5999 43.5753 16.5016 43.8329 16.3542 44.0625Z" fill="#F9AB3E"/>
<path d="M27.0834 45.8333C27.0834 46.3859 26.8639 46.9158 26.4732 47.3065C26.0825 47.6972 25.5526 47.9167 25.0001 47.9167C24.4475 47.9167 23.9176 47.6972 23.5269 47.3065C23.1362 46.9158 22.9167 46.3859 22.9167 45.8333C22.9167 45.2808 23.1362 44.7509 23.5269 44.3602C23.9176 43.9695 24.4475 43.75 25.0001 43.75C25.5526 43.75 26.0825 43.9695 26.4732 44.3602C26.8639 44.7509 27.0834 45.2808 27.0834 45.8333Z" fill="#F9AB3E"/>
<path d="M45.8333 22.9167C46.3859 22.9167 46.9158 23.1362 47.3065 23.5269C47.6972 23.9176 47.9167 24.4475 47.9167 25C47.9167 25.5526 47.6972 26.0825 47.3065 26.4732C46.9158 26.8639 46.3859 27.0834 45.8333 27.0834C45.2808 27.0834 44.7509 26.8639 44.3602 26.4732C43.9695 26.0825 43.75 25.5526 43.75 25C43.75 24.4475 43.9695 23.9176 44.3602 23.5269C44.7509 23.1362 45.2808 22.9167 45.8333 22.9167Z" fill="#F9AB3E"/>
<path d="M41.9792 12.8125C42.2169 12.6631 42.4825 12.5633 42.7598 12.5191C43.0371 12.4749 43.3205 12.4872 43.593 12.5553C43.8654 12.6234 44.1212 12.7459 44.3451 12.9154C44.569 13.0849 44.7564 13.2979 44.8958 13.5417C45.1558 14.0256 45.2141 14.5927 45.0581 15.1195C44.902 15.6462 44.5442 16.09 44.0625 16.3542C43.8329 16.5015 43.5753 16.5998 43.3058 16.6429C43.0364 16.6859 42.761 16.6728 42.4969 16.6043C42.2328 16.5359 41.9857 16.4135 41.7711 16.245C41.5565 16.0765 41.3791 15.8654 41.25 15.625C41.1026 15.3954 41.0044 15.1378 40.9613 14.8683C40.9183 14.5989 40.9314 14.3235 40.9999 14.0594C41.0683 13.7953 41.1907 13.5482 41.3592 13.3336C41.5277 13.119 41.7388 12.9416 41.9792 12.8125Z" fill="#F9AB3E"/>
<path d="M33.6459 5.9375C33.9101 5.45583 34.3539 5.09802 34.8806 4.94195C35.4074 4.78588 35.9744 4.84418 36.4584 5.10417C36.9296 5.40505 37.2678 5.87496 37.4034 6.41739C37.539 6.95982 37.4618 7.53358 37.1876 8.02084C37.0584 8.2612 36.881 8.47228 36.6665 8.64081C36.4519 8.80933 36.2048 8.93168 35.9407 9.00015C35.6766 9.06862 35.4011 9.08175 35.1317 9.0387C34.8623 8.99565 34.6047 8.89736 34.375 8.75C34.1347 8.6209 33.9236 8.44349 33.7551 8.22891C33.5866 8.01434 33.4642 7.76724 33.3957 7.50313C33.3273 7.23902 33.3141 6.9636 33.3572 6.69417C33.4002 6.42475 33.4985 6.16713 33.6459 5.9375Z" fill="#F9AB3E"/>
</g>
<defs>
<clipPath id="clip0_257_149">
<rect width="50" height="50" fill="white"/>
</clipPath>
</defs>
</svg>
