<svg width="50" height="50" viewBox="0 0 50 50" fill="none" xmlns="http://www.w3.org/2000/svg">
<path d="M45.3125 28.125C45.3125 33.55 43.1984 38.6516 39.3625 42.4891C35.525 46.325 30.425 48.4375 25 48.4375C19.5734 48.4375 14.4734 46.3234 10.6375 42.4875C6.80156 38.6516 4.6875 33.55 4.6875 28.125C4.6875 26.4 6.0875 25 7.8125 25C9.5375 25 10.9375 26.4 10.9375 28.125C10.9375 31.8797 12.4016 35.4125 15.0562 38.0688C17.7125 40.725 21.2437 42.1875 25 42.1875C28.7547 42.1875 32.2875 40.725 34.9438 38.0688C37.5984 35.4125 39.0625 31.8813 39.0625 28.125C39.0625 24.3688 37.5984 20.8375 34.9438 18.1813C32.2875 15.525 28.7563 14.0625 25 14.0625H21.6063L24.0844 16.5406C25.3047 17.7609 25.3047 19.7391 24.0844 20.9594C22.8641 22.1797 20.8859 22.1797 19.6656 20.9594L11.8531 13.1469C10.6328 11.9266 10.6328 9.94844 11.8531 8.72813L19.6656 0.915631C20.8859 -0.304681 22.8641 -0.304681 24.0844 0.915631C25.3047 2.13594 25.3047 4.11407 24.0844 5.33438L21.6063 7.81251H25C30.4266 7.81251 35.5266 9.92657 39.3625 13.7625C43.1984 17.5984 45.3125 22.7 45.3125 28.125Z" fill="#1592AE"/>
</svg>
