<svg width="50" height="50" viewBox="0 0 50 50" fill="none" xmlns="http://www.w3.org/2000/svg">
<path d="M43.5973 41.4702L39.4388 34.9769C43.0252 31.9912 43.9219 26.7223 41.3414 22.6921V22.6916C40.4021 21.2257 39.1167 20.1175 37.6637 19.3854V7.64405C37.6637 5.94699 36.2831 4.56635 34.586 4.56635H9.26252C7.56546 4.56635 6.18481 5.94699 6.18481 7.64405V42.5253C6.18481 44.2229 7.56546 45.6035 9.26252 45.6035H34.586C36.283 45.6035 37.6637 44.2229 37.6637 42.5253V37.4104L41.2333 42.9842L43.5973 41.4702ZM39.5703 23.8262C41.7389 27.2152 40.7486 31.7368 37.3607 33.9059C37.0209 34.1236 36.6654 34.3037 36.3022 34.4606L36.2091 34.4992C35.4024 34.8333 34.5662 35.0104 33.7353 35.0469C33.7109 35.048 33.6866 35.0483 33.6621 35.049C33.2684 35.0626 32.8741 35.0441 32.4833 34.9937C32.4476 34.989 32.4118 34.9809 32.376 34.9756C32.0106 34.9231 31.6497 34.8429 31.2964 34.7357C31.2688 34.7273 31.2401 34.7217 31.2126 34.7131C30.8516 34.5985 30.5014 34.4512 30.1617 34.2815C30.1179 34.2596 30.0735 34.2389 30.0301 34.2162C29.6966 34.0409 29.3772 33.84 29.0748 33.6151C29.0366 33.5867 28.9994 33.5569 28.9617 33.5278C28.6594 33.2938 28.372 33.0371 28.1063 32.7533C28.0798 32.7248 28.0556 32.6939 28.0295 32.665C27.7584 32.3662 27.5047 32.0463 27.281 31.6967V31.6962C27.2578 31.6601 27.2398 31.6218 27.2173 31.5853C27.1099 31.4109 27.0059 31.2352 26.9148 31.0556C26.8927 31.0122 26.8762 30.9668 26.8552 30.9231C26.7691 30.7446 26.6856 30.5653 26.6152 30.3827C26.6103 30.37 26.607 30.3567 26.6022 30.3439C25.5822 27.6507 26.2555 24.579 28.3093 22.5601C28.3183 22.5513 28.3261 22.5415 28.3351 22.5328C28.4796 22.3922 28.6347 22.2601 28.7925 22.1303C28.8253 22.1035 28.8547 22.0735 28.888 22.0472C29.0812 21.894 29.282 21.7506 29.4896 21.6175C29.7686 21.4389 30.057 21.2874 30.3494 21.1511C30.4591 21.1002 30.5723 21.0599 30.6841 21.0147C30.8683 20.9398 31.0535 20.8688 31.2412 20.8099C31.3767 20.7675 31.514 20.732 31.6516 20.6976C31.8213 20.655 31.9925 20.6186 32.1648 20.5885C32.3077 20.5636 32.4508 20.5408 32.5949 20.5244C32.7706 20.5046 32.9463 20.4948 33.1223 20.4878C33.2629 20.4821 33.4033 20.4732 33.5442 20.4756C33.6787 20.478 33.8124 20.4905 33.9464 20.5003C34.1052 20.5118 34.2642 20.5213 34.4225 20.5433C34.5569 20.5619 34.6893 20.5916 34.8224 20.6176C34.9795 20.6483 35.137 20.6765 35.2927 20.7177C35.4178 20.7509 35.5399 20.795 35.6633 20.8348C35.8245 20.8868 35.9863 20.9364 36.1449 21C37.507 21.5457 38.7201 22.4997 39.5703 23.8262ZM9.26252 6.67021H34.586C35.1233 6.67021 35.5598 7.10731 35.5598 7.64405V13.5103H8.28868V7.64405C8.28868 7.10731 8.72523 6.67021 9.26252 6.67021ZM35.5598 42.5253C35.5598 43.0626 35.1232 43.4997 34.586 43.4997H9.26252C8.72523 43.4997 8.28868 43.0626 8.28868 42.5253V15.6142H35.5598V18.6123C35.5416 18.6081 35.523 18.6065 35.5048 18.6024C35.2955 18.5549 35.0835 18.5213 34.8715 18.4881C34.7835 18.4744 34.6962 18.4544 34.608 18.4433C32.4972 18.1735 30.2845 18.6107 28.3555 19.8456C28.0881 20.0172 27.8295 20.2019 27.5805 20.3992C27.5369 20.4337 27.4987 20.4725 27.4559 20.5076C27.2533 20.6738 27.0547 20.8438 26.8679 21.0249C26.8567 21.0359 26.847 21.0479 26.8359 21.0589C25.5421 22.3258 24.6398 23.939 24.2433 25.7489C23.8429 27.5732 23.9913 29.4317 24.6503 31.1347L24.6504 31.1351C24.75 31.3924 24.8648 31.645 24.9877 31.8946C25.0052 31.9301 25.0184 31.9671 25.0363 32.0025C25.1803 32.2866 25.3384 32.5632 25.51 32.8315C25.7551 33.2143 26.0322 33.5674 26.3237 33.9058C26.3787 33.9695 26.4325 34.0338 26.489 34.0957C26.7847 34.421 27.0985 34.7256 27.4341 35.0039C27.466 35.0303 27.4997 35.0536 27.5319 35.0796C27.8591 35.3432 28.2038 35.5843 28.5636 35.8012C28.6032 35.8251 28.6411 35.8513 28.681 35.8746C29.0535 36.092 29.4419 36.2824 29.8441 36.4473C29.913 36.4756 29.9828 36.4995 30.0523 36.5262C30.4107 36.6633 30.7782 36.7809 31.1561 36.8747C31.212 36.8886 31.2662 36.9068 31.3222 36.9197C31.3528 36.9267 31.382 36.9375 31.4127 36.9442C31.8112 37.0316 32.2114 37.0848 32.6116 37.1204C32.6824 37.1265 32.7534 37.1274 32.8245 37.1319C33.031 37.1456 33.2376 37.1656 33.4437 37.1656C33.5932 37.1656 33.7402 37.1409 33.8892 37.1338C34.0348 37.1268 34.1802 37.1165 34.3253 37.1027C34.6684 37.0699 35.007 37.0162 35.344 36.9456C35.4158 36.9305 35.4883 36.9292 35.5599 36.9124V42.5253H35.5598Z" fill="#F9AB3E"/>
<path d="M10.0419 8.05084H14.2496V12.2586H10.0419V8.05084ZM10.0419 18.624H21.9244V21.9742H10.0419V18.624ZM10.0419 28.1166H21.9244V31.4669H10.0419V28.1166ZM10.0419 37.6558H13.299V40.913H10.0419V37.6558ZM16.7627 37.6558H20.0198V40.913H16.7627V37.6558ZM23.4834 37.6558H26.7406V40.913H23.4834V37.6558ZM30.2042 37.5944H33.4613V40.8515H30.2042V37.5944Z" fill="#F9AB3E"/>
</svg>
