<svg data-v-fde0c5aa="" xmlns="http://www.w3.org/2000/svg" viewBox="0 0 300 300" class="iconLeft"><!----><defs data-v-fde0c5aa=""><!----></defs><rect data-v-fde0c5aa="" fill="transparent" x="0" y="0" width="300px" height="300px" class="logo-background-square"></rect><defs data-v-fde0c5aa=""><!----></defs><g data-v-fde0c5aa="" id="f4ee2fb3-ae07-45ec-9893-19df09f0a5d7" fill="#000000" transform="matrix(1.9844020723343367,0,0,1.9844020723343367,89.8176674138106,134.70026041972164)"><path d="M3.77 11.38L3.77 11.38L3.77 11.38Q4.23 11.38 4.53 11.30L4.53 11.30L4.53 11.30Q4.83 11.23 5.01 11.10L5.01 11.10L5.01 11.10Q5.19 10.96 5.26 10.78L5.26 10.78L5.26 10.78Q5.33 10.60 5.33 10.37L5.33 10.37L5.33 10.37Q5.33 9.90 4.89 9.58L4.89 9.58L4.89 9.58Q4.44 9.27 3.35 8.90L3.35 8.90L3.35 8.90Q2.87 8.74 2.39 8.52L2.39 8.52L2.39 8.52Q1.92 8.30 1.54 7.97L1.54 7.97L1.54 7.97Q1.16 7.64 0.92 7.17L0.92 7.17L0.92 7.17Q0.69 6.71 0.69 6.03L0.69 6.03L0.69 6.03Q0.69 5.36 0.94 4.82L0.94 4.82L0.94 4.82Q1.19 4.28 1.65 3.91L1.65 3.91L1.65 3.91Q2.11 3.53 2.77 3.32L2.77 3.32L2.77 3.32Q3.43 3.12 4.26 3.12L4.26 3.12L4.26 3.12Q5.24 3.12 5.95 3.33L5.95 3.33L5.95 3.33Q6.66 3.54 7.13 3.79L7.13 3.79L6.50 5.52L6.50 5.52Q6.09 5.31 5.59 5.14L5.59 5.14L5.59 5.14Q5.10 4.98 4.40 4.98L4.40 4.98L4.40 4.98Q3.61 4.98 3.27 5.20L3.27 5.20L3.27 5.20Q2.93 5.42 2.93 5.87L2.93 5.87L2.93 5.87Q2.93 6.13 3.05 6.31L3.05 6.31L3.05 6.31Q3.18 6.50 3.41 6.64L3.41 6.64L3.41 6.64Q3.64 6.79 3.94 6.91L3.94 6.91L3.94 6.91Q4.24 7.03 4.61 7.15L4.61 7.15L4.61 7.15Q5.36 7.43 5.92 7.71L5.92 7.71L5.92 7.71Q6.48 7.98 6.85 8.34L6.85 8.34L6.85 8.34Q7.22 8.71 7.41 9.20L7.41 9.20L7.41 9.20Q7.59 9.69 7.59 10.39L7.59 10.39L7.59 10.39Q7.59 11.75 6.64 12.49L6.64 12.49L6.64 12.49Q5.68 13.24 3.77 13.24L3.77 13.24L3.77 13.24Q3.12 13.24 2.60 13.17L2.60 13.17L2.60 13.17Q2.09 13.09 1.69 12.98L1.69 12.98L1.69 12.98Q1.29 12.87 1.00 12.74L1.00 12.74L1.00 12.74Q0.71 12.61 0.52 12.50L0.52 12.50L1.13 10.77L1.13 10.77Q1.57 11.00 2.21 11.19L2.21 11.19L2.21 11.19Q2.84 11.38 3.77 11.38ZM8.78 9.42L8.78 9.42L8.78 9.42Q8.78 8.44 9.08 7.71L9.08 7.71L9.08 7.71Q9.38 6.97 9.87 6.48L9.87 6.48L9.87 6.48Q10.36 5.99 11.00 5.74L11.00 5.74L11.00 5.74Q11.63 5.49 12.31 5.49L12.31 5.49L12.31 5.49Q13.87 5.49 14.78 6.45L14.78 6.45L14.78 6.45Q15.69 7.41 15.69 9.27L15.69 9.27L15.69 9.27Q15.69 9.45 15.68 9.67L15.68 9.67L15.68 9.67Q15.67 9.88 15.65 10.05L15.65 10.05L10.92 10.05L10.92 10.05Q10.99 10.70 11.52 11.07L11.52 11.07L11.52 11.07Q12.05 11.45 12.95 11.45L12.95 11.45L12.95 11.45Q13.52 11.45 14.08 11.35L14.08 11.35L14.08 11.35Q14.63 11.24 14.98 11.09L14.98 11.09L15.26 12.78L15.26 12.78Q15.09 12.87 14.81 12.95L14.81 12.95L14.81 12.95Q14.53 13.03 14.19 13.10L14.19 13.10L14.19 13.10Q13.85 13.16 13.45 13.20L13.45 13.20L13.45 13.20Q13.06 13.24 12.67 13.24L12.67 13.24L12.67 13.24Q11.68 13.24 10.94 12.95L10.94 12.95L10.94 12.95Q10.21 12.66 9.72 12.14L9.72 12.14L9.72 12.14Q9.24 11.63 9.01 10.93L9.01 10.93L9.01 10.93Q8.78 10.23 8.78 9.42ZM10.92 8.62L13.68 8.62L13.68 8.62Q13.66 8.36 13.59 8.11L13.59 8.11L13.59 8.11Q13.51 7.85 13.35 7.66L13.35 7.66L13.35 7.66Q13.19 7.46 12.94 7.34L12.94 7.34L12.94 7.34Q12.70 7.21 12.33 7.21L12.33 7.21L12.33 7.21Q11.98 7.21 11.73 7.33L11.73 7.33L11.73 7.33Q11.48 7.45 11.31 7.64L11.31 7.64L11.31 7.64Q11.14 7.84 11.05 8.10L11.05 8.10L11.05 8.10Q10.96 8.36 10.92 8.62L10.92 8.62ZM22.09 5.81L21.74 7.53L21.74 7.53Q21.46 7.46 21.08 7.38L21.08 7.38L21.08 7.38Q20.71 7.31 20.27 7.31L20.27 7.31L20.27 7.31Q20.08 7.31 19.80 7.34L19.80 7.34L19.80 7.34Q19.53 7.38 19.39 7.42L19.39 7.42L19.39 13.05L17.30 13.05L17.30 6.08L17.30 6.08Q17.86 5.88 18.63 5.71L18.63 5.71L18.63 5.71Q19.39 5.53 20.33 5.53L20.33 5.53L20.33 5.53Q20.50 5.53 20.73 5.55L20.73 5.55L20.73 5.55Q20.97 5.57 21.21 5.61L21.21 5.61L21.21 5.61Q21.45 5.64 21.69 5.69L21.69 5.69L21.69 5.69Q21.92 5.74 22.09 5.81L22.09 5.81ZM26.95 13.05L25.21 13.05L25.21 13.05Q24.50 11.65 23.77 9.77L23.77 9.77L23.77 9.77Q23.03 7.90 22.37 5.68L22.37 5.68L24.58 5.68L24.58 5.68Q24.72 6.23 24.91 6.87L24.91 6.87L24.91 6.87Q25.10 7.50 25.30 8.16L25.30 8.16L25.30 8.16Q25.51 8.81 25.71 9.42L25.71 9.42L25.71 9.42Q25.91 10.04 26.11 10.54L26.11 10.54L26.11 10.54Q26.29 10.04 26.50 9.42L26.50 9.42L26.50 9.42Q26.71 8.81 26.91 8.16L26.91 8.16L26.91 8.16Q27.12 7.50 27.31 6.87L27.31 6.87L27.31 6.87Q27.50 6.23 27.64 5.68L27.64 5.68L29.79 5.68L29.79 5.68Q29.13 7.90 28.40 9.77L28.40 9.77L28.40 9.77Q27.66 11.65 26.95 13.05L26.95 13.05ZM33.00 5.68L33.00 13.05L30.91 13.05L30.91 5.68L33.00 5.68ZM33.19 3.56L33.19 3.56L33.19 3.56Q33.19 4.13 32.82 4.46L32.82 4.46L32.82 4.46Q32.45 4.79 31.95 4.79L31.95 4.79L31.95 4.79Q31.44 4.79 31.07 4.46L31.07 4.46L31.07 4.46Q30.70 4.13 30.70 3.56L30.70 3.56L30.70 3.56Q30.70 2.98 31.07 2.65L31.07 2.65L31.07 2.65Q31.44 2.32 31.95 2.32L31.95 2.32L31.95 2.32Q32.45 2.32 32.82 2.65L32.82 2.65L32.82 2.65Q33.19 2.98 33.19 3.56ZM34.61 9.37L34.61 9.37L34.61 9.37Q34.61 8.57 34.87 7.86L34.87 7.86L34.87 7.86Q35.13 7.15 35.62 6.63L35.62 6.63L35.62 6.63Q36.11 6.10 36.81 5.80L36.81 5.80L36.81 5.80Q37.51 5.49 38.40 5.49L38.40 5.49L38.40 5.49Q38.99 5.49 39.48 5.59L39.48 5.59L39.48 5.59Q39.97 5.70 40.43 5.89L40.43 5.89L40.00 7.56L40.00 7.56Q39.70 7.45 39.35 7.36L39.35 7.36L39.35 7.36Q39.00 7.28 38.57 7.28L38.57 7.28L38.57 7.28Q37.65 7.28 37.19 7.85L37.19 7.85L37.19 7.85Q36.74 8.43 36.74 9.37L36.74 9.37L36.74 9.37Q36.74 10.36 37.16 10.91L37.16 10.91L37.16 10.91Q37.59 11.45 38.65 11.45L38.65 11.45L38.65 11.45Q39.03 11.45 39.47 11.38L39.47 11.38L39.47 11.38Q39.90 11.31 40.26 11.16L40.26 11.16L40.56 12.87L40.56 12.87Q40.19 13.02 39.65 13.13L39.65 13.13L39.65 13.13Q39.10 13.24 38.44 13.24L38.44 13.24L38.44 13.24Q37.44 13.24 36.71 12.94L36.71 12.94L36.71 12.94Q35.98 12.64 35.51 12.12L35.51 12.12L35.51 12.12Q35.04 11.61 34.83 10.90L34.83 10.90L34.83 10.90Q34.61 10.19 34.61 9.37ZM41.61 9.42L41.61 9.42L41.61 9.42Q41.61 8.44 41.91 7.71L41.91 7.71L41.91 7.71Q42.21 6.97 42.70 6.48L42.70 6.48L42.70 6.48Q43.19 5.99 43.83 5.74L43.83 5.74L43.83 5.74Q44.46 5.49 45.14 5.49L45.14 5.49L45.14 5.49Q46.70 5.49 47.61 6.45L47.61 6.45L47.61 6.45Q48.52 7.41 48.52 9.27L48.52 9.27L48.52 9.27Q48.52 9.45 48.51 9.67L48.51 9.67L48.51 9.67Q48.50 9.88 48.48 10.05L48.48 10.05L43.75 10.05L43.75 10.05Q43.82 10.70 44.35 11.07L44.35 11.07L44.35 11.07Q44.88 11.45 45.78 11.45L45.78 11.45L45.78 11.45Q46.35 11.45 46.91 11.35L46.91 11.35L46.91 11.35Q47.46 11.24 47.81 11.09L47.81 11.09L48.09 12.78L48.09 12.78Q47.92 12.87 47.64 12.95L47.64 12.95L47.64 12.95Q47.36 13.03 47.02 13.10L47.02 13.10L47.02 13.10Q46.68 13.16 46.28 13.20L46.28 13.20L46.28 13.20Q45.89 13.24 45.50 13.24L45.50 13.24L45.50 13.24Q44.51 13.24 43.77 12.95L43.77 12.95L43.77 12.95Q43.04 12.66 42.55 12.14L42.55 12.14L42.55 12.14Q42.07 11.63 41.84 10.93L41.84 10.93L41.84 10.93Q41.61 10.23 41.61 9.42ZM43.75 8.62L46.51 8.62L46.51 8.62Q46.49 8.36 46.42 8.11L46.42 8.11L46.42 8.11Q46.34 7.85 46.18 7.66L46.18 7.66L46.18 7.66Q46.02 7.46 45.77 7.34L45.77 7.34L45.77 7.34Q45.53 7.21 45.16 7.21L45.16 7.21L45.16 7.21Q44.81 7.21 44.56 7.33L44.56 7.33L44.56 7.33Q44.31 7.45 44.14 7.64L44.14 7.64L44.14 7.64Q43.97 7.84 43.88 8.10L43.88 8.10L43.88 8.10Q43.79 8.36 43.75 8.62L43.75 8.62ZM55.82 5.14L55.82 11.27L55.82 11.27Q55.97 11.28 56.18 11.29L56.18 11.29L56.18 11.29Q56.38 11.30 56.66 11.30L56.66 11.30L56.66 11.30Q58.30 11.30 59.09 10.47L59.09 10.47L59.09 10.47Q59.88 9.65 59.88 8.19L59.88 8.19L59.88 8.19Q59.88 6.66 59.12 5.88L59.12 5.88L59.12 5.88Q58.37 5.10 56.73 5.10L56.73 5.10L56.73 5.10Q56.50 5.10 56.27 5.10L56.27 5.10L56.27 5.10Q56.03 5.11 55.82 5.14L55.82 5.14ZM62.13 8.19L62.13 8.19L62.13 8.19Q62.13 9.45 61.74 10.39L61.74 10.39L61.74 10.39Q61.35 11.33 60.63 11.94L60.63 11.94L60.63 11.94Q59.91 12.56 58.87 12.87L58.87 12.87L58.87 12.87Q57.83 13.17 56.55 13.17L56.55 13.17L56.55 13.17Q55.96 13.17 55.17 13.13L55.17 13.13L55.17 13.13Q54.39 13.08 53.63 12.92L53.63 12.92L53.63 3.47L53.63 3.47Q54.39 3.33 55.21 3.28L55.21 3.28L55.21 3.28Q56.03 3.23 56.62 3.23L56.62 3.23L56.62 3.23Q57.86 3.23 58.88 3.51L58.88 3.51L58.88 3.51Q59.89 3.79 60.62 4.40L60.62 4.40L60.62 4.40Q61.35 5.00 61.74 5.94L61.74 5.94L61.74 5.94Q62.13 6.87 62.13 8.19ZM63.46 9.42L63.46 9.42L63.46 9.42Q63.46 8.44 63.76 7.71L63.76 7.71L63.76 7.71Q64.06 6.97 64.55 6.48L64.55 6.48L64.55 6.48Q65.04 5.99 65.68 5.74L65.68 5.74L65.68 5.74Q66.32 5.49 66.99 5.49L66.99 5.49L66.99 5.49Q68.56 5.49 69.47 6.45L69.47 6.45L69.47 6.45Q70.38 7.41 70.38 9.27L70.38 9.27L70.38 9.27Q70.38 9.45 70.36 9.67L70.36 9.67L70.36 9.67Q70.35 9.88 70.34 10.05L70.34 10.05L65.60 10.05L65.60 10.05Q65.67 10.70 66.21 11.07L66.21 11.07L66.21 11.07Q66.74 11.45 67.63 11.45L67.63 11.45L67.63 11.45Q68.21 11.45 68.76 11.35L68.76 11.35L68.76 11.35Q69.31 11.24 69.66 11.09L69.66 11.09L69.94 12.78L69.94 12.78Q69.78 12.87 69.50 12.95L69.50 12.95L69.50 12.95Q69.22 13.03 68.87 13.10L68.87 13.10L68.87 13.10Q68.53 13.16 68.14 13.20L68.14 13.20L68.14 13.20Q67.75 13.24 67.35 13.24L67.35 13.24L67.35 13.24Q66.36 13.24 65.63 12.95L65.63 12.95L65.63 12.95Q64.89 12.66 64.41 12.14L64.41 12.14L64.41 12.14Q63.92 11.63 63.69 10.93L63.69 10.93L63.69 10.93Q63.46 10.23 63.46 9.42ZM65.60 8.62L68.36 8.62L68.36 8.62Q68.35 8.36 68.27 8.11L68.27 8.11L68.27 8.11Q68.19 7.85 68.03 7.66L68.03 7.66L68.03 7.66Q67.87 7.46 67.63 7.34L67.63 7.34L67.63 7.34Q67.38 7.21 67.02 7.21L67.02 7.21L67.02 7.21Q66.67 7.21 66.42 7.33L66.42 7.33L66.42 7.33Q66.16 7.45 66.00 7.64L66.00 7.64L66.00 7.64Q65.83 7.84 65.74 8.10L65.74 8.10L65.74 8.10Q65.65 8.36 65.60 8.62L65.60 8.62ZM74.10 11.55L74.10 11.55L74.10 11.55Q74.68 11.55 74.91 11.44L74.91 11.44L74.91 11.44Q75.15 11.33 75.15 11.00L75.15 11.00L75.15 11.00Q75.15 10.75 74.84 10.56L74.84 10.56L74.84 10.56Q74.54 10.37 73.91 10.14L73.91 10.14L73.91 10.14Q73.42 9.95 73.02 9.76L73.02 9.76L73.02 9.76Q72.62 9.56 72.34 9.29L72.34 9.29L72.34 9.29Q72.06 9.02 71.90 8.64L71.90 8.64L71.90 8.64Q71.75 8.26 71.75 7.73L71.75 7.73L71.75 7.73Q71.75 6.69 72.52 6.09L72.52 6.09L72.52 6.09Q73.29 5.49 74.63 5.49L74.63 5.49L74.63 5.49Q75.31 5.49 75.92 5.61L75.92 5.61L75.92 5.61Q76.54 5.73 76.90 5.87L76.90 5.87L76.54 7.49L76.54 7.49Q76.17 7.36 75.75 7.27L75.75 7.27L75.75 7.27Q75.32 7.17 74.79 7.17L74.79 7.17L74.79 7.17Q73.81 7.17 73.81 7.71L73.81 7.71L73.81 7.71Q73.81 7.84 73.85 7.94L73.85 7.94L73.85 7.94Q73.89 8.04 74.02 8.13L74.02 8.13L74.02 8.13Q74.14 8.22 74.36 8.32L74.36 8.32L74.36 8.32Q74.58 8.43 74.91 8.55L74.91 8.55L74.91 8.55Q75.60 8.81 76.05 9.05L76.05 9.05L76.05 9.05Q76.50 9.30 76.75 9.58L76.75 9.58L76.75 9.58Q77.01 9.87 77.12 10.22L77.12 10.22L77.12 10.22Q77.22 10.57 77.22 11.03L77.22 11.03L77.22 11.03Q77.22 12.12 76.41 12.68L76.41 12.68L76.41 12.68Q75.59 13.24 74.09 13.24L74.09 13.24L74.09 13.24Q73.11 13.24 72.46 13.08L72.46 13.08L72.46 13.08Q71.81 12.91 71.55 12.80L71.55 12.80L71.90 11.10L71.90 11.10Q72.44 11.31 73.00 11.43L73.00 11.43L73.00 11.43Q73.56 11.55 74.10 11.55ZM80.86 2.18L80.86 8.34L80.86 8.34Q81.17 8.01 81.50 7.64L81.50 7.64L81.50 7.64Q81.83 7.28 82.14 6.92L82.14 6.92L82.14 6.92Q82.45 6.57 82.72 6.24L82.72 6.24L82.72 6.24Q82.99 5.92 83.19 5.68L83.19 5.68L85.67 5.68L85.67 5.68Q84.92 6.54 84.22 7.31L84.22 7.31L84.22 7.31Q83.51 8.09 82.67 8.92L82.67 8.92L82.67 8.92Q83.09 9.30 83.54 9.82L83.54 9.82L83.54 9.82Q83.99 10.35 84.41 10.91L84.41 10.91L84.41 10.91Q84.83 11.47 85.18 12.03L85.18 12.03L85.18 12.03Q85.53 12.59 85.76 13.05L85.76 13.05L83.37 13.05L83.37 13.05Q83.15 12.68 82.86 12.24L82.86 12.24L82.86 12.24Q82.57 11.80 82.25 11.36L82.25 11.36L82.25 11.36Q81.93 10.92 81.57 10.51L81.57 10.51L81.57 10.51Q81.21 10.11 80.86 9.83L80.86 9.83L80.86 13.05L78.78 13.05L78.78 2.52L80.86 2.18Z"></path></g><defs data-v-fde0c5aa=""><linearGradient data-v-fde0c5aa="" gradientTransform="rotate(25)" id="6a79a5e6-91a9-47e1-9b95-799acdf1f1a9" x1="0%" y1="0%" x2="100%" y2="0%"><stop data-v-fde0c5aa="" offset="0%" stop-color="#3C1143" stop-opacity="1"></stop><stop data-v-fde0c5aa="" offset="100%" stop-color="#C25178" stop-opacity="1"></stop></linearGradient></defs><g data-v-fde0c5aa="" id="4bcf2e30-fff5-43db-81a5-206c0329db8a" stroke="none" fill="url(#6a79a5e6-91a9-47e1-9b95-799acdf1f1a9)" transform="matrix(0.39426621305807286,0,0,0.39426621305807286,40,133.53938560482547)"><g data-name="Layer 2"><path d="M94.5 10.1H85a1.5 1.5 0 0 0 0 3h8v57.3h-7.85a1.5 1.5 0 0 0 0 3h9.35a1.5 1.5 0 0 0 1.5-1.5V11.6a1.5 1.5 0 0 0-1.5-1.5zM10.85 13.1a1.5 1.5 0 0 0 0-3H1.5A1.5 1.5 0 0 0 0 11.6v60.3a1.5 1.5 0 0 0 1.5 1.5h9.35a1.5 1.5 0 0 0 0-3H3V13.1zM75 0H21a1.5 1.5 0 0 0-1.5 1.5V82a1.5 1.5 0 0 0 1.5 1.5h54a1.5 1.5 0 0 0 1.5-1.5V1.5A1.5 1.5 0 0 0 75 0zm-1.5 80.5h-51V3h51z"></path></g></g><!----></svg>